<svg width="315" height="312" viewBox="0 0 315 312" fill="none" xmlns="http://www.w3.org/2000/svg">
<path d="M226.747 38.3453C227.478 38.7971 228.207 39.2344 228.906 39.6533C230.01 40.315 231.037 40.9308 231.872 41.4853C232.551 41.9446 233.117 42.329 233.514 42.5986L233.975 42.9121L234.097 42.9948L234.128 43.016L234.136 43.0214L234.138 43.0227L234.138 43.0231L234.139 43.0232L234.139 43.0232L234.42 42.61L234.139 43.0232L234.553 43.3057L234.834 42.8901L245.324 27.3801L245.604 26.9669L245.191 26.6864L244.91 27.1L245.191 26.6864L245.191 26.6864L245.191 26.6863L245.19 26.6859L245.188 26.6844L245.179 26.6782L245.144 26.6542L245.005 26.5605C244.885 26.4785 244.707 26.3584 244.481 26.2057C244.03 25.9005 243.384 25.4651 242.609 24.9448L242.607 24.9435C241.567 24.2527 240.25 23.4603 238.864 22.6269C238.172 22.2103 237.462 21.7833 236.761 21.3537L236.759 21.3519L235.964 20.8719L235.168 20.3919L235.158 20.3854L235.147 20.3795C234.609 20.0906 234.08 19.8015 233.571 19.5217L233.571 19.5217L233.567 19.5199C233.209 19.3267 232.858 19.137 232.517 18.9531C231.89 18.6141 231.298 18.2948 230.766 18.0094L228.781 16.9444L228.224 16.6453L228.077 16.5664L228.039 16.5462L228.03 16.5411L228.027 16.5398L228.027 16.5395L228.026 16.5394L228.026 16.5394L227.79 16.98L228.026 16.5394L227.575 16.2973L227.344 16.7543L218.894 33.4643L219.21 33.6242L227.01 37.92M226.747 38.3453L227.01 37.92M226.747 38.3453C226.747 38.3453 226.747 38.3454 226.748 38.3455L227.01 37.92M226.747 38.3453C226.456 38.1654 226.167 37.9912 225.879 37.817C225.707 37.7137 225.536 37.6103 225.364 37.5057M227.01 37.92C226.717 37.7392 226.424 37.5623 226.134 37.3869C225.958 37.2809 225.783 37.1754 225.61 37.07M225.364 37.5057C225.369 37.5083 225.374 37.5109 225.379 37.5134L225.61 37.07M225.364 37.5057C225.066 37.3501 224.767 37.1882 224.478 37.032C224.306 36.9389 224.137 36.8477 223.975 36.7612L223.973 36.7602C223.064 36.2705 222.224 35.8208 221.494 35.431L221.493 35.4303C220.768 35.0402 220.165 34.715 219.744 34.4874L219.255 34.2232L219.126 34.1536L219.093 34.1357L219.085 34.1312L219.083 34.13L219.082 34.1297L219.082 34.1297L219.082 34.1296L219.32 33.69M225.364 37.5057C225.36 37.5028 225.355 37.5 225.35 37.4971L225.61 37.07M225.61 37.07L219.32 33.69M219.32 33.69C219.32 33.69 219.327 33.6936 219.34 33.7008C219.392 33.7288 219.543 33.8104 219.776 33.9364M219.32 33.69H219.34L219.562 33.2521L219.561 33.2518L219.559 33.2507L219.558 33.2504L219.558 33.2504L219.558 33.2503L219.776 33.9364M219.32 33.69V34.19H219.34H219.648L219.776 33.9364M219.32 33.69L219.776 33.9364" fill="#5D7294" stroke="#5D7294"/>
<path d="M237.26 46.4789L237.872 45.6298L238.063 45.7735C238.446 46.0621 238.994 46.4744 239.648 46.9691C239.863 47.1316 240.09 47.3014 240.325 47.4781C241.535 48.3859 242.986 49.4745 244.362 50.6679L244.362 50.668L244.367 50.6723C244.85 51.08 245.333 51.4799 245.804 51.8695C246.984 52.8457 248.086 53.7574 248.909 54.5668L248.915 54.5729L248.922 54.5787C249.526 55.1329 250.028 55.5972 250.378 55.9228C250.554 56.0857 250.691 56.2138 250.785 56.3012L250.891 56.401L250.919 56.4265L250.926 56.4329L250.927 56.4345L250.928 56.4349L250.928 56.435L250.928 56.435L251.27 56.0702L250.928 56.435L251.293 56.7771L251.635 56.4121L264.435 42.7521L264.781 42.3825L264.407 42.041L264.07 42.4102L264.407 42.041L264.407 42.041L264.407 42.0408L264.406 42.0404L264.404 42.0386L264.396 42.0314L264.365 42.0027L264.242 41.8904C264.135 41.792 263.977 41.6475 263.777 41.4633C263.377 41.0957 262.806 40.5701 262.124 39.9374C261.126 38.9703 259.794 37.8647 258.408 36.7142C257.909 36.3005 257.404 35.8811 256.905 35.4602C255.213 33.9936 253.418 32.648 251.997 31.5829C251.825 31.4546 251.66 31.3304 251.5 31.2106C250.755 30.6505 250.133 30.1829 249.696 29.8554L249.189 29.475L249.056 29.3747L249.021 29.3489L249.013 29.3424L249.01 29.3408L249.01 29.3404L249.01 29.3403L249.01 29.3402L248.71 29.7402L249.01 29.3402L248.602 29.0345L248.304 29.4479L237.657 44.218L237.26 43.9202V44.9202V44.9302V46.4789Z" fill="#5D7294" stroke="#5D7294"/>
<path d="M267.045 45.2476L253.992 58.3801H252.994L253.834 59.2314L254.19 58.8801L253.834 59.2314L253.834 59.2314L253.834 59.2315L253.835 59.2319L253.836 59.2336L253.843 59.2404L253.869 59.2671L253.972 59.3714L254.363 59.7673C254.698 60.1081 255.178 60.5949 255.752 61.1791C255.943 61.3764 256.141 61.5756 256.346 61.7802C256.776 62.2109 257.23 62.6661 257.685 63.1811C258.253 63.8237 258.855 64.5011 259.457 65.1777C259.576 65.3123 259.696 65.4469 259.815 65.5811C260.11 65.9165 260.403 66.2454 260.692 66.5696C261.119 67.0479 261.537 67.516 261.935 67.9793C262.242 68.3626 262.538 68.7301 262.819 69.0791C263.129 69.4635 263.421 69.8255 263.689 70.1617L263.69 70.1636C264.206 70.8039 264.636 71.3367 264.937 71.7095C265.088 71.8959 265.207 72.0423 265.288 72.1421L265.38 72.256L265.404 72.2853L265.41 72.2927L265.411 72.2946L265.412 72.2951L265.412 72.2952L265.412 72.2952L265.8 71.9801L265.412 72.2952L265.72 72.6751L266.107 72.3751L280.896 60.8951L281.298 60.5832L280.98 60.1868L280.59 60.5001L280.98 60.1868L280.98 60.1868L280.979 60.1866L280.979 60.1861L280.977 60.184L280.971 60.1756L280.944 60.1423L280.84 60.0125L280.444 59.5196C280.102 59.0947 279.615 58.4873 279.03 57.7574L279.029 57.7558C278.946 57.6533 278.861 57.5487 278.775 57.4421C278.247 56.7886 277.657 56.0588 277.03 55.2772L277.025 55.2712L277.02 55.2654C276.525 54.6852 275.992 54.0884 275.457 53.4891C275.168 53.1658 274.879 52.8419 274.595 52.5194L274.593 52.5172C274.238 52.12 273.884 51.7208 273.533 51.3259C273.067 50.8005 272.607 50.2825 272.162 49.7863C271.68 49.2488 271.175 48.7368 270.717 48.272C270.437 47.9879 270.174 47.7214 269.944 47.4774L269.944 47.4773L269.936 47.4692C269.281 46.8045 268.737 46.2498 268.356 45.8612C268.165 45.667 268.016 45.5143 267.914 45.4101L267.797 45.2913L267.767 45.2608L267.76 45.2531L267.758 45.2512L267.758 45.2507L267.757 45.2506L267.757 45.2506L267.4 45.6001L267.757 45.2506L267.403 44.8879L267.045 45.2476Z" fill="#5D7294" stroke="#5D7294"/>
<path d="M268.34 74.5534L268.289 74.4839L267.876 74.8962L267.866 74.9062L268.187 75.2812L267.826 75.5449L267.826 75.5449L267.826 75.545L267.826 75.5455L267.828 75.5474L267.833 75.5551L267.856 75.5855L267.942 75.7043C268.018 75.8083 268.129 75.961 268.27 76.1552C268.552 76.5436 268.955 77.0981 269.434 77.7626C270.014 78.5661 270.657 79.5576 271.35 80.6261C271.798 81.3179 272.268 82.042 272.754 82.7684L272.754 82.7684L272.758 82.7736C273.337 83.6143 273.855 84.5013 274.355 85.3572C274.379 85.399 274.404 85.4406 274.428 85.4822C274.653 85.8665 274.87 86.2348 275.077 86.586C275.353 87.0551 275.612 87.4938 275.847 87.9C276.106 88.3491 276.351 88.7604 276.555 89.1017C276.669 89.2924 276.77 89.4612 276.852 89.6025C276.96 89.8073 277.045 89.9709 277.104 90.0838L277.173 90.2154L277.19 90.2493L277.195 90.2579L277.196 90.26L277.196 90.2605L277.196 90.2607L277.196 90.2607L277.64 90.03L277.196 90.2607L277.432 90.7146L277.881 90.4682L294.291 81.4481L294.724 81.2099L294.49 80.7738L294.49 80.7738L294.49 80.7737L294.49 80.7732L294.489 80.7709L294.484 80.7614L294.464 80.7237L294.385 80.5762C294.317 80.4471 294.218 80.258 294.093 80.019L294.088 80.0099L294.083 80.0009C293.91 79.6987 293.682 79.3129 293.418 78.8662C293.269 78.6144 293.109 78.3432 292.941 78.0567C292.756 77.7426 292.559 77.409 292.352 77.0588C292.029 76.5116 291.682 75.924 291.322 75.3078C290.732 74.2991 290.095 73.2161 289.385 72.1708C288.901 71.4454 288.421 70.7074 287.953 69.9894C287.102 68.6806 286.293 67.4378 285.585 66.4573L285.584 66.4556C285.034 65.7009 284.577 65.0712 284.257 64.6302C284.097 64.4097 283.972 64.2364 283.886 64.1182L283.788 63.9833L283.763 63.9487L283.757 63.94L283.755 63.9378L283.755 63.9373L283.755 63.9371L283.755 63.9371L283.35 64.23L283.755 63.9371L283.461 63.5302L283.055 63.8259L268.34 74.5534Z" fill="#5D7294" stroke="#5D7294"/>
<path d="M296.2 85.0801L296.641 84.844L296.409 84.4114L295.972 84.635L279.302 93.165L278.69 93.4781L279.134 93.9216C279.149 93.9485 279.167 93.9838 279.19 94.0271C279.249 94.1391 279.336 94.3048 279.445 94.5178L279.445 94.5179L279.452 94.5302C279.677 94.9424 279.99 95.5389 280.312 96.2714L280.312 96.2715L280.316 96.279C280.559 96.8071 280.832 97.3888 281.122 98.0071C281.662 99.1588 282.262 100.438 282.84 101.736L282.884 101.844C283.696 103.831 284.505 105.808 285.113 107.298C285.386 108.069 285.615 108.71 285.775 109.16L285.963 109.684L286.012 109.822L286.025 109.857L286.028 109.866L286.029 109.868L286.029 109.869L286.029 109.869L286.029 109.869L286.5 109.7L286.029 109.869L286.199 110.34L286.67 110.17L304.28 103.81L304.749 103.641L304.581 103.171L304.11 103.34L304.581 103.171L304.581 103.171L304.581 103.171L304.58 103.17L304.579 103.168L304.576 103.158L304.561 103.117L304.505 102.961L304.292 102.366C304.108 101.854 303.846 101.121 303.531 100.242L303.527 100.231L303.523 100.22C302.813 98.4907 301.873 96.1912 300.933 93.8816L300.93 93.8742L300.927 93.8668C300.239 92.3214 299.517 90.7807 298.882 89.4247C298.583 88.7871 298.303 88.1903 298.055 87.6532C297.715 86.8917 297.382 86.2552 297.138 85.79C297.105 85.7265 297.073 85.6661 297.043 85.6091C296.918 85.3681 296.817 85.1772 296.748 85.0463L296.669 84.8964L296.648 84.8575L296.643 84.8475L296.641 84.845L296.641 84.8443L296.641 84.8441L296.641 84.844L296.641 84.844L296.2 85.0801Z" fill="#5D7294" stroke="#5D7294"/>
<path d="M287.526 113.176L287.314 113.389L287.402 113.676L287.88 113.53L287.402 113.676L287.402 113.676L287.402 113.676L287.402 113.676L287.403 113.679L287.405 113.688L287.416 113.724L287.459 113.864C287.496 113.987 287.551 114.167 287.62 114.396C287.759 114.854 287.956 115.508 288.19 116.292C288.317 116.725 288.459 117.191 288.609 117.68C289.014 119.006 289.475 120.512 289.822 122.059L289.822 122.059L289.824 122.066C289.995 122.782 290.174 123.487 290.347 124.168C290.697 125.545 291.022 126.824 291.207 127.895L291.207 127.895L291.209 127.907C291.37 128.713 291.505 129.386 291.6 129.858C291.647 130.093 291.685 130.279 291.71 130.405L291.74 130.55L291.747 130.587L291.749 130.597L291.75 130.599L291.75 130.6L291.75 130.6L291.75 130.6L292.24 130.5L291.75 130.6L291.849 131.084L292.334 130.991L310.724 127.451L311.221 127.355L311.12 126.86L311.12 126.86L311.12 126.859L311.12 126.859L311.119 126.856L311.117 126.846L311.108 126.804L311.075 126.641C311.046 126.498 311.004 126.289 310.95 126.022C310.843 125.49 310.691 124.731 310.512 123.819C310.281 122.494 309.871 120.879 309.443 119.196C309.27 118.515 309.094 117.823 308.926 117.135C308.511 115.332 307.973 113.559 307.513 112.045C307.349 111.503 307.195 110.995 307.06 110.53L307.06 110.53L307.059 110.526C306.789 109.63 306.564 108.885 306.406 108.364L306.223 107.759L306.175 107.6L306.163 107.559L306.16 107.549L306.159 107.546L306.159 107.545L306.158 107.545L306.158 107.545L305.68 107.69L306.158 107.545L306.01 107.055L305.524 107.215L287.734 113.045L287.621 113.082L287.536 113.166L287.526 113.176Z" fill="#5D7294" stroke="#5D7294"/>
<path d="M292.45 134.51V134.547L292.455 134.583L292.95 134.51L292.455 134.583L292.455 134.583L292.455 134.583L292.455 134.584L292.456 134.586L292.457 134.596L292.463 134.633L292.484 134.778C292.503 134.905 292.531 135.091 292.567 135.328C292.638 135.802 292.741 136.48 292.866 137.296L292.866 137.296L292.868 137.308C293.119 138.712 293.302 140.548 293.494 142.462C293.52 142.723 293.546 142.985 293.572 143.248C293.609 143.645 293.65 144.032 293.691 144.412C293.766 145.106 293.839 145.776 293.871 146.434L293.871 146.434C293.921 147.454 293.971 148.416 294.021 149.239C294.021 149.239 294.021 149.24 294.021 149.24L294.129 151.217L294.16 151.771L294.168 151.917L294.17 151.955L294.171 151.964L294.171 151.966L294.171 151.967L294.171 151.967L294.171 151.967L294.67 151.94L294.171 151.967L294.198 152.456L294.686 152.439L313.397 151.819L313.904 151.803L313.879 151.296L313.879 151.296L313.879 151.295L313.879 151.295L313.879 151.292L313.879 151.281L313.877 151.238L313.868 151.072C313.861 150.926 313.851 150.713 313.837 150.441C313.809 149.897 313.769 149.119 313.719 148.183L313.719 148.183C313.706 147.941 313.693 147.689 313.678 147.427C313.638 146.682 313.594 145.862 313.549 145.004C313.511 144.257 313.427 143.47 313.343 142.687C313.295 142.235 313.247 141.785 313.208 141.346L313.208 141.346L313.207 141.34C313.192 141.19 313.177 141.04 313.162 140.89C312.929 138.571 312.697 136.268 312.393 134.51C312.254 133.587 312.137 132.818 312.054 132.28L311.958 131.655L311.933 131.49L311.926 131.448L311.925 131.437L311.924 131.434L311.924 131.434L311.924 131.434L311.924 131.433L311.43 131.51L311.924 131.433L311.847 130.936L311.35 131.016L292.87 134.006L292.45 134.074V134.5V134.51Z" fill="#5D7294" stroke="#5D7294"/>
<path d="M313.448 155.46L294.847 155.52L294.21 155.201L294.21 156.01L294.71 156.01L294.21 156.01V156.01V156.01L294.21 156.011L294.21 156.013L294.21 156.023L294.21 156.061L294.21 156.209C294.211 156.338 294.211 156.527 294.212 156.768C294.215 157.247 294.22 157.93 294.23 158.748C294.21 159.804 294.15 161.083 294.085 162.451C294.049 163.198 294.012 163.971 293.98 164.748C293.916 166.165 293.777 167.554 293.651 168.814C293.583 169.496 293.518 170.14 293.471 170.73C293.407 171.542 293.333 172.215 293.275 172.684C293.246 172.918 293.221 173.101 293.203 173.225C293.195 173.288 293.188 173.335 293.183 173.366L293.178 173.402L293.176 173.41L293.176 173.412L293.176 173.412L293.176 173.412L293.176 173.412L293.176 173.412L293.096 173.922L293.608 173.986L312.188 176.316L312.67 176.377L312.744 175.896L312.25 175.82L312.744 175.896L312.744 175.896L312.744 175.896L312.744 175.895L312.745 175.892L312.746 175.88L312.753 175.837C312.759 175.798 312.767 175.742 312.777 175.668C312.798 175.522 312.827 175.307 312.861 175.034C312.929 174.489 313.017 173.71 313.098 172.773L313.098 172.77C313.148 172.151 313.217 171.451 313.292 170.7C313.436 169.236 313.6 167.577 313.679 165.934L313.68 165.93C313.715 165.041 313.756 164.148 313.796 163.282C313.867 161.736 313.934 160.276 313.96 159.081L313.96 159.081V159.07C313.96 158.134 313.957 157.356 313.955 156.811C313.954 156.539 313.952 156.325 313.951 156.18L313.95 156.013L313.95 155.971L313.95 155.96L313.95 155.957L313.95 155.956L313.95 155.956V155.956L313.946 155.458L313.448 155.46Z" fill="#5D7294" stroke="#5D7294"/>
<path d="M293.656 177.114L293.807 176.093L292.736 177.167L292.726 177.177L292.032 177.873L292.521 177.949L292.485 178.186L292.485 178.186L292.484 178.198C292.425 178.667 292.327 179.323 292.161 180.117L292.161 180.117L292.16 180.123C291.841 181.725 291.424 183.863 291.006 186.002L291.002 186.023C290.734 187.119 290.46 188.227 290.205 189.26C289.969 190.213 289.749 191.102 289.564 191.862L289.564 191.862L289.562 191.87C289.446 192.385 289.315 192.798 289.197 193.17C289.133 193.372 289.072 193.562 289.02 193.75C288.951 193.977 288.897 194.155 288.859 194.276L288.817 194.415L288.806 194.451L288.803 194.46L288.802 194.462L288.802 194.463L288.802 194.463L288.802 194.463L289.28 194.61L288.802 194.463L288.653 194.948L289.14 195.09L307.12 200.32L307.597 200.459L307.739 199.984L307.26 199.84L307.739 199.984L307.739 199.984L307.739 199.984L307.739 199.983L307.739 199.983L307.74 199.98L307.743 199.969L307.756 199.928L307.803 199.766C307.845 199.625 307.905 199.42 307.98 199.159L307.981 199.156C308.022 199.011 308.076 198.838 308.137 198.643C308.278 198.188 308.458 197.61 308.606 196.966C308.83 196.065 309.09 195.008 309.369 193.875C309.648 192.74 309.946 191.528 310.245 190.32L310.248 190.311L310.249 190.302C310.598 188.634 310.92 186.957 311.203 185.481C311.334 184.797 311.457 184.156 311.57 183.579C311.762 182.659 311.884 181.88 311.955 181.329C311.995 181.059 312.025 180.847 312.045 180.701C312.055 180.628 312.063 180.571 312.068 180.533L312.074 180.489L312.075 180.478L312.076 180.475L312.076 180.474L312.076 180.474L312.076 180.474L312.076 180.474L311.58 180.41L312.076 180.474L312.138 179.991L311.657 179.916L293.656 177.114Z" fill="#5D7294" stroke="#5D7294"/>
<path d="M288.721 198.175L288.766 198H288.12H288.1L288.025 198.475L287.636 198.374L287.636 198.375L287.634 198.382L287.625 198.414C287.617 198.443 287.604 198.488 287.587 198.546C287.551 198.663 287.496 198.836 287.419 199.052C287.4 199.107 287.379 199.165 287.358 199.225C287.202 199.662 286.996 200.244 286.75 200.919C286.524 201.541 286.272 202.253 286.006 203.007C285.941 203.19 285.875 203.376 285.809 203.563L285.808 203.565C285.793 203.608 285.778 203.651 285.763 203.695C285.435 204.63 285.094 205.603 284.682 206.539L284.682 206.539L284.678 206.548C284.305 207.446 283.929 208.348 283.571 209.205C283.127 210.269 282.712 211.266 282.363 212.107C282.011 212.847 281.718 213.462 281.512 213.894L281.273 214.397L281.21 214.53L281.194 214.564L281.19 214.573L281.189 214.575L281.189 214.575L281.188 214.576L281.188 214.576L281.64 214.79L281.188 214.576L280.973 215.029L281.427 215.242L298.367 223.212L298.819 223.425L299.032 222.974L298.58 222.76L299.032 222.974L299.032 222.974L299.032 222.974L299.032 222.973L299.034 222.971L299.038 222.961L299.056 222.922L299.127 222.772L299.397 222.203L300.362 220.164L300.366 220.156L300.369 220.149C300.94 218.829 301.63 217.153 302.349 215.405C302.564 214.883 302.782 214.354 303 213.826C303.439 212.825 303.802 211.794 304.141 210.831C304.195 210.678 304.248 210.526 304.301 210.377C304.469 209.906 304.633 209.445 304.79 209.004C304.998 208.419 305.195 207.868 305.372 207.366C305.561 206.828 305.731 206.348 305.876 205.939C305.969 205.678 306.051 205.446 306.122 205.246L306.123 205.244C306.215 204.977 306.282 204.766 306.326 204.62C306.348 204.547 306.365 204.491 306.376 204.452L306.388 204.407L306.392 204.394L306.393 204.391L306.393 204.39L306.393 204.389L306.393 204.389L306.393 204.389L305.91 204.26L306.393 204.389L306.516 203.93L306.064 203.784L288.721 198.175Z" fill="#5D7294" stroke="#5D7294"/>
<path d="M279.4 217.646V218.343L279.367 218.405L279.103 218.894C278.875 219.315 278.55 219.918 278.16 220.643L278.159 220.644C277.769 221.374 277.319 222.213 276.83 223.123L276.829 223.125C276.725 223.319 276.604 223.543 276.48 223.771C276.345 224.02 276.207 224.274 276.085 224.502C276.01 224.626 275.934 224.751 275.857 224.876C275.653 225.21 275.445 225.551 275.243 225.891C274.791 226.62 274.355 227.348 273.936 228.046C273.275 229.15 272.659 230.177 272.105 231.012C271.645 231.69 271.261 232.257 270.991 232.654L270.678 233.115L270.595 233.237L270.574 233.268L270.569 233.276L270.567 233.278L270.567 233.278L270.567 233.278L270.567 233.278L270.98 233.56L270.567 233.278L270.284 233.693L270.7 233.974L286.21 244.464L286.623 244.744L286.904 244.331L286.49 244.05L286.904 244.331L286.904 244.331L286.904 244.331L286.904 244.33L286.906 244.328L286.912 244.319L286.936 244.283L287.029 244.145C287.111 244.024 287.232 243.847 287.384 243.621C287.69 243.17 288.125 242.524 288.645 241.749C289.343 240.709 290.133 239.392 290.963 238.007C291.38 237.313 291.806 236.602 292.236 235.901L292.238 235.898L292.718 235.103L293.198 234.308L293.205 234.298L293.211 234.287C293.499 233.749 293.788 233.22 294.068 232.711L294.068 232.711L294.071 232.705C294.323 232.233 294.572 231.772 294.81 231.331C295.086 230.821 295.346 230.338 295.581 229.895C295.581 229.895 295.582 229.895 295.582 229.894L296.646 227.911L296.945 227.354L297.024 227.207L297.044 227.169L297.049 227.159L297.05 227.157L297.051 227.156L297.051 227.156L297.051 227.156L296.61 226.92L297.051 227.156L297.293 226.705L296.836 226.474L280.126 218.014L279.4 217.646Z" fill="#5D7294" stroke="#5D7294"/>
<path d="M268.962 236.505L268.564 236.218L268.27 236.61L268.67 236.91L268.27 236.61L268.27 236.61L268.27 236.61L268.27 236.611L268.268 236.613L268.262 236.62L268.24 236.65L268.152 236.768L267.817 237.213C267.528 237.597 267.116 238.144 266.621 238.799L266.62 238.8C266.507 238.951 266.39 239.107 266.27 239.268C265.333 240.522 264.186 242.056 262.922 243.513L262.922 243.512L262.919 243.516C262.463 244.052 262.02 244.588 261.591 245.106C260.662 246.229 259.799 247.271 259.023 248.06L259.018 248.065L259.013 248.071L257.663 249.529L257.286 249.937L257.187 250.044L257.162 250.071L257.155 250.078L257.154 250.08L257.153 250.081L257.153 250.081L257.153 250.081L257.52 250.42L257.153 250.081L256.816 250.445L257.178 250.785L270.848 263.585L271.218 263.931L271.559 263.557L271.19 263.22L271.559 263.557L271.559 263.557L271.559 263.557L271.56 263.557L271.562 263.555L271.569 263.547L271.598 263.515L271.71 263.393C271.808 263.285 271.953 263.128 272.137 262.927C272.504 262.527 273.03 261.957 273.663 261.274C274.63 260.277 275.735 258.945 276.886 257.559C277.3 257.06 277.719 256.555 278.14 256.055C279.607 254.363 280.952 252.568 282.017 251.147C282.145 250.976 282.27 250.81 282.39 250.651C282.95 249.905 283.417 249.283 283.745 248.847L284.125 248.34L284.226 248.206L284.251 248.172L284.258 248.163L284.259 248.161L284.26 248.16L284.26 248.16L284.26 248.16L283.86 247.86L284.26 248.16L284.566 247.753L284.152 247.455L268.962 236.505Z" fill="#5D7294" stroke="#5D7294"/>
<path d="M252.412 254.901C252.214 255.092 252.015 255.291 251.81 255.496C251.379 255.926 250.924 256.381 250.409 256.835C249.639 257.515 248.82 258.245 248.001 258.973L247.999 258.975C247.664 259.27 247.335 259.563 247.011 259.852C246.532 260.279 246.064 260.697 245.601 261.095C244.804 261.732 244.055 262.332 243.416 262.851C242.776 263.366 242.243 263.796 241.871 264.098C241.684 264.248 241.538 264.367 241.438 264.448L241.324 264.54L241.295 264.564L241.287 264.57L241.286 264.571L241.285 264.572L241.285 264.572L241.285 264.572L241.6 264.96L241.285 264.572L240.905 264.88L241.205 265.267L252.685 280.057L252.997 280.458L253.393 280.14L253.08 279.75L253.393 280.14L253.394 280.14L253.394 280.14L253.394 280.139L253.396 280.137L253.405 280.131L253.438 280.104L253.568 280L254.061 279.604C254.485 279.263 255.092 278.776 255.822 278.191C256.522 277.635 257.332 276.978 258.187 276.284L258.305 276.188L258.305 276.189L258.315 276.18C258.837 275.734 259.377 275.254 259.921 274.77C260.303 274.431 260.688 274.089 261.069 273.757L261.069 273.757L261.073 273.753L261.077 273.749C262.006 272.92 262.934 272.093 263.801 271.325L263.804 271.322C264.341 270.84 264.853 270.335 265.318 269.877C265.602 269.597 265.869 269.334 266.113 269.104L266.113 269.104L266.121 269.096C266.786 268.442 267.34 267.897 267.729 267.516C267.923 267.325 268.076 267.176 268.18 267.074L268.299 266.957L268.329 266.928L268.337 266.92L268.339 266.918L268.339 266.918L268.34 266.918L268.34 266.918L267.99 266.56L268.34 266.918L268.702 266.563L268.343 266.205L255.21 253.152V252.154L254.359 252.994L254.71 253.35L254.359 252.994L254.359 252.994L254.359 252.994L254.358 252.995L254.357 252.996L254.35 253.003L254.323 253.029L254.219 253.132C254.128 253.222 253.994 253.353 253.824 253.521C253.483 253.855 252.996 254.332 252.412 254.901ZM252.412 254.901C252.412 254.901 252.412 254.901 252.413 254.901L252.76 255.26L252.411 254.902C252.411 254.902 252.412 254.901 252.412 254.901Z" fill="#5D7294" stroke="#5D7294"/>
<path d="M238.391 266.724L238.694 267.026L238.704 267.036L238.731 267.064L238.754 267.095L249.784 282.225L250.08 282.631L249.673 282.925L249.38 282.52L249.673 282.925L249.673 282.925L249.673 282.925L249.672 282.926L249.67 282.927L249.661 282.934L249.627 282.959L249.492 283.056C249.374 283.142 249.2 283.267 248.98 283.427C248.539 283.747 247.909 284.204 247.154 284.754L247.153 284.755C246.172 285.463 244.929 286.272 243.621 287.124C242.903 287.591 242.165 288.071 241.439 288.555C240.394 289.265 239.311 289.902 238.302 290.492C237.292 291.082 236.354 291.63 235.557 292.109L235.551 292.112L235.551 292.112C234.74 292.583 234.073 292.971 233.606 293.249L233.594 293.257L233.581 293.263C233.342 293.388 233.153 293.487 233.024 293.556L232.876 293.634L232.839 293.654L232.829 293.659L232.827 293.66L232.826 293.661L232.826 293.661L238.391 266.724ZM238.391 266.724L238.045 266.976M238.391 266.724L238.045 266.976M238.045 266.976L238.34 267.38M238.045 266.976L238.34 267.38M238.34 267.38L238.045 266.976L238.045 266.976L238.045 266.976L238.044 266.977L238.043 266.978L238.035 266.984L238.004 267.006L237.885 267.093L237.435 267.423C237.047 267.706 236.495 268.111 235.836 268.596C234.986 269.209 233.922 269.899 232.78 270.64C232.147 271.051 231.49 271.477 230.833 271.914L230.833 271.913M238.34 267.38L230.833 271.913M230.833 271.913L230.829 271.917M230.833 271.913L230.829 271.917M230.829 271.917C229.935 272.525 229.01 273.067 228.118 273.588L228.118 273.588M230.829 271.917L228.118 273.588M228.118 273.588L228.116 273.589M228.118 273.588L228.116 273.589M228.116 273.589C227.815 273.767 227.519 273.942 227.232 274.111M228.116 273.589L227.232 274.111M227.232 274.111C226.682 274.437 226.163 274.743 225.696 275.02M227.232 274.111L225.696 275.02M225.696 275.02C225.533 275.116 225.377 275.208 225.228 275.296M225.696 275.02L225.228 275.296M225.228 275.296C224.731 275.59 224.314 275.837 224 276.021L225.228 275.296Z" fill="#5D7294" stroke="#5D7294"/>
<path d="M215.262 280.427C214.198 280.925 213.035 281.468 211.853 282L211.841 282.005C209.822 282.831 207.805 283.655 206.292 284.273C205.521 284.546 204.88 284.775 204.43 284.935L203.906 285.123L203.768 285.172L203.733 285.185L203.724 285.188L203.722 285.189L203.721 285.189L203.721 285.189L203.721 285.189L203.89 285.66L203.721 285.189L203.25 285.359L203.42 285.83L209.77 303.44L209.939 303.909L210.409 303.741L210.24 303.27L210.409 303.741L210.409 303.741L210.409 303.74L210.41 303.74L210.412 303.739L210.422 303.736L210.463 303.721L210.619 303.665L211.214 303.452C211.726 303.268 212.458 303.006 213.338 302.691L213.348 302.687L213.357 302.683C214.289 302.307 215.388 301.856 216.565 301.374C217.572 300.961 218.635 300.526 219.698 300.093L219.706 300.09L219.713 300.087C221.259 299.399 222.799 298.677 224.155 298.042C224.793 297.743 225.39 297.463 225.927 297.215C226.688 296.875 227.325 296.541 227.79 296.298C227.854 296.265 227.914 296.233 227.971 296.203C228.212 296.078 228.403 295.977 228.534 295.908L228.684 295.829L228.722 295.808L228.732 295.803L228.735 295.801L228.736 295.801L228.736 295.801L228.736 295.801L228.736 295.801L228.5 295.36L228.736 295.801L229.169 295.569L228.945 295.132L220.415 278.462L219.907 278.585L219.732 278.26L219.732 278.26L219.731 278.261L219.73 278.262L219.722 278.266L219.69 278.283C219.661 278.298 219.619 278.321 219.563 278.35C219.451 278.409 219.285 278.496 219.072 278.605L219.072 278.605L219.06 278.611C218.645 278.838 218.061 279.15 217.321 279.471L217.321 279.471L217.312 279.475C216.694 279.757 216.002 280.081 215.262 280.427Z" fill="#5D7294" stroke="#5D7294"/>
<path d="M200.56 286.96V286.361L199.919 286.551L200.06 287.03L199.918 286.551L199.918 286.551L199.918 286.551L199.918 286.551L199.915 286.552L199.906 286.554L199.87 286.565L199.729 286.607C199.606 286.644 199.425 286.697 199.195 286.766C198.736 286.904 198.082 287.101 197.297 287.341C196.864 287.467 196.399 287.61 195.91 287.759C194.584 288.165 193.078 288.625 191.531 288.972L191.531 288.972L191.521 288.975C190.886 289.13 190.258 289.29 189.648 289.446C188.184 289.821 186.821 290.169 185.688 290.357L185.68 290.358L185.673 290.36C184.867 290.52 184.194 290.655 183.723 290.75C183.487 290.798 183.301 290.835 183.175 290.861L183.03 290.89L182.993 290.898L182.983 290.9L182.981 290.9L182.98 290.9L182.98 290.9L182.98 290.9L183.08 291.39L182.98 290.9L182.496 290.999L182.589 291.485L186.129 309.875L186.225 310.372L186.72 310.27L186.62 309.78L186.72 310.27L186.72 310.27L186.721 310.27L186.721 310.27L186.724 310.269L186.734 310.267L186.776 310.259L186.939 310.226C187.082 310.197 187.291 310.154 187.558 310.1C188.09 309.993 188.849 309.841 189.761 309.662C191.086 309.431 192.701 309.021 194.384 308.593C195.065 308.42 195.757 308.245 196.445 308.077C198.248 307.661 200.021 307.123 201.535 306.664C202.077 306.5 202.585 306.345 203.05 306.21L203.05 306.21L203.055 306.209C203.95 305.939 204.695 305.714 205.216 305.556L205.821 305.374L205.98 305.325L206.021 305.313L206.031 305.31L206.034 305.309L206.035 305.309L206.035 305.309L206.035 305.309L205.89 304.83L206.035 305.309L206.525 305.161L206.365 304.675L200.56 286.96Z" fill="#5D7294" stroke="#5D7294"/>
<path d="M136.544 292.327L136.106 292.259L136.143 291.755L136.07 292.25L136.143 291.755L136.143 291.755L136.143 291.755L136.143 291.755L136.14 291.755L136.131 291.753L136.094 291.748L135.948 291.727C135.82 291.708 135.633 291.68 135.392 291.645L135.392 291.645L135.382 291.644C134.913 291.585 134.257 291.487 133.463 291.321L133.463 291.321L133.458 291.32C131.855 291.001 129.717 290.583 127.578 290.166L127.558 290.161C126.461 289.894 125.354 289.62 124.321 289.365C123.368 289.129 122.478 288.909 121.719 288.724L121.719 288.724L121.716 288.723C121.187 288.598 120.748 288.461 120.365 288.342C120.175 288.282 119.998 288.227 119.831 288.18C119.604 288.111 119.426 288.057 119.304 288.019L119.165 287.977L119.129 287.966L119.12 287.963L119.118 287.962L119.117 287.962L119.117 287.962L119.117 287.962L119.117 287.962L118.97 288.44L119.117 287.962L118.632 287.813L118.49 288.3L113.26 306.28L113.122 306.756L113.597 306.899L113.597 306.899L113.597 306.899L113.597 306.899L113.6 306.9L113.61 306.903L113.651 306.915L113.81 306.963C113.949 307.006 114.154 307.068 114.413 307.148L114.413 307.148L114.422 307.15C114.558 307.19 114.716 307.238 114.894 307.292C115.355 307.434 115.945 307.614 116.611 307.776C117.513 308 118.571 308.26 119.705 308.539C120.84 308.818 122.052 309.116 123.26 309.415L123.269 309.417L123.278 309.419C124.946 309.768 126.623 310.09 128.098 310.372C128.783 310.504 129.424 310.627 130.001 310.74C130.921 310.932 131.701 311.054 132.251 311.125C132.521 311.165 132.734 311.195 132.879 311.215C132.953 311.225 133.009 311.233 133.047 311.238L133.091 311.244L133.102 311.245L133.105 311.246L133.106 311.246L133.106 311.246L133.106 311.246L133.106 311.246L133.589 311.308L133.664 310.827L136.544 292.327Z" fill="#5D7294" stroke="#5D7294"/>
<path d="M115.039 286.736C114.922 286.702 114.749 286.649 114.533 286.577C114.478 286.558 114.421 286.537 114.361 286.516C113.925 286.361 113.344 286.155 112.671 285.91C112.049 285.684 111.337 285.432 110.583 285.165C110.4 285.1 110.214 285.035 110.027 284.968L110.025 284.968C109.916 284.929 109.806 284.891 109.695 284.852C108.819 284.547 107.922 284.234 107.055 283.844L107.049 283.841L107.042 283.838C106.626 283.665 106.21 283.492 105.798 283.321C104.212 282.662 102.691 282.031 101.495 281.524C100.755 281.171 100.138 280.877 99.706 280.672L99.2026 280.433L99.07 280.37L99.036 280.354L99.0274 280.349L99.0253 280.348L99.0247 280.348L99.0246 280.348L99.0245 280.348L98.8101 280.8L99.0245 280.348L98.5712 280.133L98.3576 280.587L90.3876 297.537L90.1754 297.988L90.6262 298.202L90.8401 297.75L90.6262 298.202L90.6263 298.202L90.6264 298.202L90.627 298.202L90.6295 298.203L90.6392 298.208L90.6776 298.226L90.8276 298.297L91.3974 298.567L93.4362 299.532L93.4438 299.535L93.4515 299.539C94.7709 300.11 96.4466 300.799 98.1947 301.519C98.7173 301.734 99.2463 301.952 99.7743 302.17C100.774 302.608 101.805 302.971 102.768 303.31C102.922 303.365 103.073 303.418 103.223 303.471C103.733 303.652 104.23 303.83 104.704 304C105.245 304.194 105.757 304.377 106.224 304.541C107.104 304.851 107.831 305.11 108.348 305.299L108.357 305.302L108.365 305.305C108.63 305.392 108.839 305.456 108.984 305.498C109.056 305.519 109.112 305.535 109.15 305.546L109.194 305.558L109.206 305.562L109.21 305.562L109.211 305.563L109.211 305.563L109.211 305.563L109.211 305.563L109.34 305.08L109.211 305.563L109.67 305.685L109.816 305.234L115.576 287.414L115.124 287.138L115.216 286.786L115.214 286.785L115.207 286.783L115.174 286.774C115.144 286.766 115.099 286.754 115.039 286.736Z" fill="#5D7294" stroke="#5D7294"/>
<path d="M95.5661 279.276L95.7867 278.84L95.3563 278.609L95.12 279.05L95.3563 278.609L95.3562 278.609L95.3561 278.609L95.3556 278.609L95.3535 278.608L95.3451 278.603L95.312 278.585L95.1826 278.516C95.0693 278.455 94.9032 278.366 94.6921 278.252C94.2699 278.025 93.6677 277.7 92.9482 277.31L92.9456 277.309C92.216 276.919 91.3765 276.469 90.4671 275.98L90.4653 275.979C90.3029 275.892 90.1344 275.801 89.9622 275.708C89.6734 275.552 89.3742 275.39 89.0758 275.234C88.9041 275.13 88.7329 275.026 88.5618 274.923C88.273 274.749 87.9842 274.574 87.6926 274.394L87.6919 274.394C87.0041 273.971 86.3188 273.56 85.6598 273.165C84.5071 272.473 83.4346 271.83 82.5684 271.255C81.8895 270.795 81.3229 270.411 80.926 270.141L80.4647 269.828L80.3432 269.745L80.312 269.724L80.3042 269.718L80.3022 269.717L80.3017 269.717L80.3016 269.717L80.3016 269.717L80.02 270.13L80.3016 269.717L79.8869 269.434L79.6059 269.85L69.1159 285.36L68.8364 285.773L69.249 286.053L69.53 285.64L69.249 286.053L69.249 286.053L69.2492 286.054L69.2498 286.054L69.252 286.056L69.261 286.062L69.2965 286.086L69.4346 286.179C69.5556 286.261 69.733 286.382 69.9588 286.534C70.4104 286.839 71.0559 287.275 71.8314 287.795L71.8333 287.796C72.873 288.487 74.1903 289.28 75.5758 290.113C76.2685 290.53 76.9781 290.957 77.6787 291.386L77.6816 291.388C77.861 291.496 78.0401 291.604 78.2186 291.711C78.5725 291.923 78.9237 292.134 79.268 292.346L79.2805 292.353L79.2935 292.36C79.8314 292.649 80.3597 292.938 80.8694 293.218L80.8694 293.218L80.8745 293.221C81.3472 293.473 81.8081 293.722 82.249 293.96C82.7587 294.235 83.2415 294.496 83.6847 294.731C83.6851 294.731 83.6854 294.731 83.6858 294.732L85.6687 295.795L86.2262 296.095L86.3732 296.173L86.4109 296.194L86.4205 296.199L86.4229 296.2L86.4235 296.2L86.4237 296.2L86.4237 296.201L86.66 295.76L86.4237 296.201L86.8749 296.442L87.1061 295.986L95.5661 279.276Z" fill="#5D7294" stroke="#5D7294"/>
<path d="M63.1799 256.68L63.5218 256.315L63.1568 255.973L62.8149 256.338L50.0149 270.008L49.6688 270.378L50.0427 270.719L50.3799 270.35L50.0427 270.719L50.0428 270.719L50.0429 270.72L50.0434 270.72L50.0454 270.722L50.0533 270.729L50.0847 270.758L50.2073 270.87C50.3148 270.968 50.4724 271.113 50.6728 271.297C51.0728 271.665 51.6432 272.19 52.3258 272.823C53.323 273.79 54.6551 274.895 56.0412 276.046C56.5398 276.46 57.0454 276.879 57.5449 277.3C59.2368 278.767 61.0321 280.112 62.4532 281.178C62.6243 281.306 62.79 281.43 62.9494 281.55C63.6945 282.11 64.3171 282.577 64.7534 282.905L65.2603 283.285L65.3939 283.386L65.4283 283.411L65.4369 283.418L65.4391 283.42L65.4397 283.42L65.4398 283.42L65.4399 283.42L65.7399 283.02L65.4399 283.42L65.8475 283.726L66.1455 283.313L77.0955 268.123L77.6667 267.33H76.8479L76.8251 267.313C76.7227 267.235 76.5725 267.122 76.3811 266.977C75.9985 266.688 75.4509 266.276 74.7908 265.781C74.5814 265.623 74.3612 265.457 74.1322 265.286C72.9189 264.375 71.4622 263.282 70.0886 262.083L70.0887 262.083L70.0837 262.079C69.548 261.624 69.0126 261.18 68.4945 260.752C67.3715 259.822 66.3295 258.959 65.5404 258.184L65.5342 258.178L65.5279 258.172C64.9238 257.618 64.422 257.153 64.0714 256.828C63.8961 256.665 63.7586 256.537 63.665 256.449L63.5582 256.349L63.5309 256.324L63.5241 256.317L63.5224 256.316L63.522 256.316L63.5219 256.315L63.5218 256.315L63.1799 256.68Z" fill="#5D7294" stroke="#5D7294"/>
<path d="M33.8301 252.23L33.4404 252.543L33.4405 252.543L33.4406 252.544L33.441 252.544L33.4427 252.546L33.4495 252.555L33.4762 252.588L33.5805 252.718L33.9765 253.211C34.3176 253.635 34.805 254.243 35.3899 254.973L35.3912 254.974C35.6265 255.265 35.8775 255.577 36.1408 255.905C36.5342 256.393 36.9549 256.916 37.3918 257.455L37.3916 257.455L37.3999 257.465C38.0336 258.207 38.716 258.97 39.402 259.737C39.5437 259.896 39.6855 260.054 39.827 260.213L39.8311 260.218C40.6599 261.146 41.4878 262.074 42.2557 262.941L42.2578 262.944C42.7397 263.481 43.2447 263.993 43.7032 264.458C43.9835 264.742 44.2464 265.009 44.476 265.253L44.4759 265.253L44.4839 265.261C45.1386 265.926 45.6833 266.48 46.0644 266.869C46.2549 267.063 46.4045 267.216 46.5064 267.32L46.6227 267.439L46.6525 267.469L46.66 267.477L46.6619 267.479L46.6624 267.479L46.6625 267.479L46.6625 267.48L47.0201 267.13L46.6625 267.48L47.0171 267.842L47.3747 267.482L60.5747 254.202L60.2944 253.924L60.5959 253.509L60.2401 253.86L60.5959 253.509L60.5959 253.509L60.5958 253.509L60.5954 253.508L60.5937 253.506L60.587 253.5L60.5606 253.473L60.4578 253.369L60.0675 252.973C59.7316 252.632 59.2523 252.145 58.6782 251.561C58.4875 251.364 58.2887 251.165 58.0844 250.96C57.6542 250.529 57.1997 250.074 56.7449 249.559C56.0654 248.79 55.3363 247.971 54.6079 247.152L54.6058 247.15C54.6055 247.15 54.6051 247.149 54.6048 247.149C54.3226 246.828 54.0407 246.513 53.7633 246.204C53.3209 245.71 52.8897 245.229 52.4862 244.752L52.4848 244.75C51.8475 243.954 51.2485 243.205 50.7288 242.565C50.2139 241.926 49.7839 241.393 49.4826 241.021C49.3319 240.834 49.2133 240.688 49.1325 240.588L49.0401 240.474L49.0163 240.445L49.0103 240.437L49.0088 240.436L49.0084 240.435L49.0083 240.435L49.0083 240.435L48.6201 240.75L49.0083 240.435L48.7 240.055L48.3135 240.355L33.5235 251.835L33.1217 252.147L33.4404 252.543L33.8301 252.23Z" fill="#5D7294" stroke="#5D7294"/>
<path d="M36.7999 222.72L37.2395 222.482L36.9999 222.04L36.559 222.282L20.149 231.302L19.7156 231.54L19.9492 231.976L36.7999 222.72ZM36.7999 222.72L37.2396 222.482L37.2396 222.482L37.2396 222.482L37.2397 222.482L37.2401 222.483L37.2414 222.485L37.2462 222.494L37.2646 222.529C37.2806 222.559 37.3042 222.603 37.3346 222.661C37.3944 222.774 37.4806 222.939 37.5885 223.15C37.7718 223.463 38.018 223.879 38.3106 224.373C38.3997 224.524 38.4931 224.681 38.5903 224.846L38.5929 224.85L38.5929 224.85C39.0014 225.558 39.4901 226.385 40.0104 227.266L40.0116 227.268C40.5327 228.16 41.0744 229.085 41.6831 229.979L41.6863 229.983L41.6863 229.983C42.1231 230.64 42.5493 231.297 42.9601 231.931C43.7006 233.072 44.3911 234.137 45.0041 234.986C45.4892 235.646 45.8918 236.199 46.1733 236.587C46.2941 236.753 46.3926 236.889 46.4657 236.99H47.7545L46.5145 237.894L31.3845 248.924L30.9788 249.22L30.6847 248.813L31.0899 248.52L30.6847 248.813L30.6846 248.813L30.6845 248.813L30.6842 248.812L30.6826 248.81L30.6763 248.801L30.6513 248.767L30.5536 248.632C30.4681 248.514 30.3425 248.341 30.1826 248.12C29.8628 247.679 29.4055 247.049 28.8558 246.295L28.8545 246.293C28.1467 245.312 27.3379 244.07 26.4862 242.761C26.0189 242.043 25.5387 241.305 25.0552 240.58L36.7999 222.72Z" fill="#5D7294" stroke="#5D7294"/>
<path d="M33.3082 214.733C32.768 213.581 32.1679 212.302 31.59 211.004L31.5578 210.925C30.7415 208.928 29.9281 206.939 29.3174 205.442C29.044 204.671 28.8153 204.03 28.6547 203.581L28.4672 203.057L28.4177 202.918L28.405 202.883L28.4017 202.874L28.4009 202.872L28.4007 202.871L28.4007 202.871L28.4007 202.871L27.9301 203.04L28.4006 202.871L28.2314 202.4L27.7605 202.57L10.1505 208.92L9.68077 209.089L9.84947 209.559L10.3201 209.39L9.84948 209.559L9.84949 209.559L9.84955 209.559L9.84978 209.56L9.85069 209.562L9.85434 209.573L9.86874 209.613L9.92491 209.769L10.1382 210.364C10.3219 210.876 10.5844 211.609 10.8993 212.489L10.9032 212.499L10.9075 212.51C11.6173 214.239 12.5571 216.539 13.497 218.848L13.5 218.856L13.5033 218.863C14.1909 220.409 14.913 221.949 15.5484 223.305C15.8473 223.943 16.1269 224.54 16.3748 225.077C16.7154 225.838 17.0486 226.475 17.2922 226.94C17.3254 227.004 17.3569 227.064 17.3866 227.121C17.5121 227.362 17.6126 227.553 17.6818 227.684L17.7614 227.834L17.7821 227.873L17.7874 227.883L17.7888 227.885L17.7892 227.886L17.7893 227.886L17.7893 227.886L17.7893 227.886L18.2301 227.65L17.7893 227.886L18.021 228.319L18.4578 228.095L35.1278 219.565L35.0055 219.057L35.3297 218.882L35.3297 218.882L35.3295 218.881L35.3285 218.88L35.3243 218.872L35.3072 218.84C35.292 218.812 35.2694 218.769 35.2398 218.713C35.1807 218.601 35.0942 218.435 34.9852 218.222L34.9854 218.222L34.9786 218.21C34.7529 217.798 34.4401 217.201 34.1178 216.469L34.1178 216.469L34.1143 216.461C33.8714 215.933 33.5984 215.351 33.3082 214.733Z" fill="#5D7294" stroke="#5D7294"/>
<path d="M26.6299 199.71H27.2351L27.0383 199.064L27.0383 199.064L27.0383 199.064L27.0381 199.063L27.0374 199.061L27.0347 199.052L27.0237 199.016L26.9811 198.876C26.9438 198.753 26.8892 198.573 26.8199 198.344C26.6814 197.886 26.4842 197.232 26.2496 196.448C26.1234 196.015 25.981 195.55 25.8312 195.06C25.4257 193.734 24.965 192.228 24.6179 190.681L24.618 190.681L24.6163 190.674C24.4451 189.959 24.2654 189.255 24.0918 188.576C23.7391 187.196 23.4118 185.916 23.2333 184.838L23.232 184.83L23.2305 184.823C23.0704 184.017 22.9353 183.344 22.8402 182.872C22.7926 182.637 22.7551 182.451 22.7295 182.325L22.7001 182.18L22.6926 182.143L22.6906 182.133L22.6901 182.131L22.69 182.13L22.69 182.13L22.69 182.13L22.2 182.23L22.69 182.13L22.5912 181.645L22.1055 181.739L3.71555 185.279L3.22256 185.374L3.31946 185.866L3.81006 185.77L3.31946 185.867L3.31947 185.867L3.31951 185.867L3.31964 185.867L3.32017 185.87L3.32227 185.881L3.33054 185.923L3.36284 186.086C3.39116 186.229 3.43276 186.439 3.48592 186.706C3.59199 187.239 3.74411 188 3.92862 188.912C4.15933 190.237 4.56954 191.851 4.99687 193.534C5.16988 194.215 5.34569 194.907 5.51354 195.595C5.92913 197.398 6.46698 199.171 6.92645 200.685C7.09067 201.226 7.24487 201.735 7.3799 202.199L7.37987 202.199L7.38135 202.204C7.65138 203.099 7.8764 203.845 8.03392 204.366L8.21675 204.971L8.26493 205.13L8.27728 205.171L8.28041 205.181L8.2812 205.184L8.28139 205.185L8.28144 205.185L8.28146 205.185L8.76004 205.04L8.28146 205.185L8.42959 205.674L8.91575 205.515L26.6299 199.71Z" fill="#5D7294" stroke="#5D7294"/>
<path d="M22.0078 178.313L21.9371 178.454L21.9271 178.474L21.8125 178.703L21.5599 178.744L3.07992 181.734L2.57826 181.815L2.50525 181.312L3.00006 181.24L2.50525 181.312L2.50524 181.312L2.50522 181.312L2.50512 181.311L2.50473 181.308L2.50318 181.298L2.49701 181.255L2.47284 181.09C2.45163 180.945 2.42041 180.733 2.38045 180.463C2.30067 179.925 2.18605 179.157 2.04652 178.24C1.74446 176.502 1.51367 174.206 1.28175 171.899C1.26537 171.736 1.24898 171.573 1.23256 171.41L1.23196 171.404L1.232 171.404C1.193 170.965 1.14495 170.515 1.09674 170.063C1.01314 169.28 0.929031 168.493 0.890713 167.746L22.0078 178.313ZM22.0078 178.313L21.9847 178.157L21.4901 178.23L21.9846 178.157L21.9846 178.157L21.9846 178.157L21.9845 178.156L21.9842 178.154L21.9828 178.144L21.9773 178.107L21.9557 177.962C21.9367 177.835 21.9089 177.649 21.8732 177.412C21.8019 176.938 21.6994 176.26 21.5743 175.444L21.5744 175.444L21.5722 175.432C21.3209 174.028 21.1376 172.192 20.9465 170.278C20.9205 170.017 20.8943 169.755 20.8678 169.492C20.831 169.092 20.7889 168.702 20.7476 168.32C20.673 167.629 20.6012 166.964 20.5694 166.316C20.5194 165.285 20.4693 164.334 20.4192 163.511C20.4192 163.511 20.4191 163.51 20.4191 163.51L20.3105 161.533L20.2801 160.979L20.272 160.833L20.27 160.795L20.2695 160.786L20.2693 160.783L20.2693 160.783L20.2693 160.783L20.2693 160.783L20.2424 160.294L19.7535 160.31L1.0435 160.93L0.532008 160.947L0.560853 161.458L1.06006 161.43L0.560854 161.458L0.560856 161.458L0.560865 161.458L0.560902 161.459L0.561051 161.462L0.56165 161.472L0.564015 161.515L0.573151 161.68C0.581104 161.826 0.59265 162.039 0.607008 162.31C0.635724 162.853 0.675684 163.63 0.72064 164.564L0.720632 164.564L0.720783 164.567C0.733773 164.809 0.747429 165.061 0.761578 165.322C0.801934 166.068 0.846306 166.887 0.890701 167.746L22.0078 178.313Z" fill="#5D7294" stroke="#5D7294"/>
<path d="M20.2287 155.974C20.2275 155.494 20.225 154.811 20.22 153.993C20.2395 152.937 20.3003 151.657 20.3653 150.289C20.4008 149.542 20.4376 148.769 20.4695 147.992C20.5343 146.574 20.6731 145.185 20.7991 143.926C20.8672 143.244 20.9316 142.6 20.9784 142.009C21.0428 141.198 21.117 140.525 21.175 140.056C21.204 139.822 21.2289 139.639 21.2465 139.514C21.2553 139.452 21.2622 139.405 21.2669 139.374L21.2723 139.338L21.2736 139.33L21.2739 139.328L21.2739 139.328L21.2739 139.328L21.2739 139.328L21.2739 139.328L21.3542 138.818L20.8422 138.754L2.2622 136.424L1.78003 136.363L1.70584 136.844L2.19998 136.92L1.70583 136.844L1.70582 136.844L1.70577 136.844L1.70564 136.845L1.70516 136.848L1.70341 136.86L1.69686 136.904C1.6912 136.942 1.68301 136.999 1.67275 137.072C1.65224 137.219 1.62344 137.434 1.58995 137.707C1.523 138.252 1.43724 139.032 1.3616 139.97C1.31167 140.589 1.24259 141.289 1.1684 142.04C1.02392 143.503 0.860064 145.163 0.780583 146.806L0.780566 146.806L0.780402 146.81C0.74469 147.699 0.703659 148.592 0.663876 149.458C0.592863 151.004 0.525827 152.464 0.500116 153.659L0.5 153.659V153.67C0.5 154.606 0.502497 155.384 0.504995 155.928C0.506244 156.201 0.507493 156.414 0.50843 156.56L0.509564 156.727L0.509882 156.769L0.509966 156.78L0.509988 156.783L0.509993 156.784L0.509995 156.784L0.509995 156.784L1.00998 156.78L0.509995 156.784L0.514 157.282L1.01158 157.28L19.7316 157.22L19.73 156.73L20.23 156.73V156.73V156.73V156.729V156.727V156.72L20.23 156.717L20.23 156.218L20.2293 156.218C20.2292 156.144 20.229 156.062 20.2287 155.974Z" fill="#5D7294" stroke="#5D7294"/>
<path d="M2.84009 132.32L2.3442 132.256L2.28187 132.739L2.76318 132.814L21.2632 135.694L21.3313 135.256L21.8347 135.293L21.8347 135.293L21.8347 135.293L21.8348 135.293L21.8352 135.29L21.8366 135.281L21.8421 135.243L21.8635 135.098C21.8823 134.97 21.9098 134.782 21.9448 134.542L21.9449 134.542L21.9462 134.532C22.0048 134.063 22.1027 133.407 22.2694 132.613L22.2695 132.613L22.2705 132.608C22.5901 130.999 23.0094 128.853 23.4286 126.707C23.6963 125.611 23.97 124.504 24.2254 123.47C24.4609 122.517 24.6808 121.628 24.8659 120.869L24.8666 120.866C24.9921 120.337 25.1289 119.898 25.2485 119.514C25.3076 119.324 25.3626 119.148 25.4099 118.981C25.4791 118.753 25.5335 118.575 25.5707 118.454L25.6134 118.315L25.6243 118.279L25.6271 118.27L25.6278 118.268L25.6279 118.267L25.628 118.267L25.628 118.267L25.1501 118.12L25.628 118.267L25.7773 117.782L25.2897 117.64L7.30973 112.41L6.83364 112.272L6.69116 112.746L6.69116 112.746L6.69116 112.746L6.69115 112.746L6.69111 112.747L6.69093 112.747L6.69017 112.75L6.68709 112.76L6.67483 112.801L6.62663 112.96C6.5843 113.099 6.52199 113.304 6.44218 113.563L6.43923 113.573L6.43666 113.582C6.38804 113.766 6.32355 113.974 6.24748 114.218C6.21928 114.309 6.18949 114.404 6.15833 114.506C6.04604 114.872 5.9225 115.293 5.81384 115.764C5.58974 116.665 5.32996 117.722 5.05161 118.854C4.77229 119.99 4.47426 121.202 4.17479 122.41L4.17256 122.419L4.17067 122.428C3.82197 124.096 3.50046 125.773 3.21755 127.249C3.08633 127.933 2.96341 128.574 2.84994 129.151C2.65822 130.08 2.53644 130.85 2.46482 131.401C2.42489 131.671 2.39487 131.884 2.37477 132.029C2.36467 132.103 2.35707 132.159 2.35197 132.197L2.34621 132.241L2.34473 132.252L2.34435 132.255L2.34424 132.256L2.34421 132.256L2.3442 132.256L2.3442 132.256L2.84009 132.32Z" fill="#5D7294" stroke="#5D7294"/>
<path d="M25.7193 114.565L25.6738 114.74H26.32H26.34L26.4149 114.265L26.804 114.366L26.8044 114.364L26.8064 114.357L26.8153 114.324C26.8236 114.294 26.8363 114.249 26.8536 114.19C26.888 114.072 26.9407 113.9 27.0128 113.683C27.0322 113.629 27.0525 113.571 27.0739 113.511C27.229 113.074 27.4353 112.494 27.6799 111.821L27.68 111.821L27.6819 111.816C27.8321 111.387 27.9997 110.919 28.1778 110.421C28.3201 110.023 28.4692 109.607 28.6213 109.177L28.6219 109.176C28.6603 109.066 28.6988 108.956 28.7373 108.845C29.0429 107.969 29.3561 107.072 29.746 106.205L29.7489 106.199L29.7517 106.192C30.3225 104.82 30.8978 103.443 31.4057 102.227C31.6432 101.658 31.866 101.125 32.0667 100.644C32.4194 99.904 32.7125 99.2879 32.9178 98.8562L33.1571 98.3528L33.2201 98.2202L33.2362 98.1862L33.2403 98.1776L33.2413 98.1754L33.2416 98.1749L33.2417 98.1747L33.2417 98.1747L32.79 97.9602L33.2417 98.1747L33.4569 97.7214L33.0029 97.5078L16.0629 89.5378L15.6114 89.3254L15.3981 89.7764L15.85 89.9902L15.398 89.7764L15.398 89.7764L15.398 89.7766L15.3977 89.7772L15.3965 89.7796L15.3919 89.7894L15.3737 89.8278L15.3027 89.9778L15.0331 90.5476L14.0681 92.5863L14.0645 92.5939L14.0611 92.6017C13.5245 93.8418 12.8826 95.3974 12.2098 97.0277C11.953 97.6501 11.6917 98.2833 11.4301 98.914C10.9916 99.9145 10.6285 100.945 10.2892 101.909C10.2352 102.062 10.1818 102.214 10.1287 102.363C9.96133 102.835 9.79707 103.296 9.63955 103.738C9.43133 104.322 9.23487 104.873 9.05844 105.374C8.86876 105.913 8.69866 106.392 8.55368 106.801C8.46128 107.062 8.37909 107.294 8.30853 107.494L8.30853 107.494L8.30754 107.497C8.21531 107.763 8.14834 107.974 8.10409 108.12C8.08196 108.193 8.06551 108.249 8.05442 108.288L8.04176 108.334L8.03837 108.346L8.0374 108.35L8.03709 108.351L8.03698 108.351L8.03694 108.351L8.03692 108.351L8.52002 108.48L8.03691 108.351L7.91459 108.81L8.36624 108.956L25.7193 114.565Z" fill="#5D7294" stroke="#5D7294"/>
<path d="M34.3142 94.7163L34.75 94.9369L34.9807 94.5064L34.5401 94.2702L34.9807 94.5064L34.9808 94.5064L34.9808 94.5063L34.9811 94.5057L34.9822 94.5036L34.9867 94.4953L35.0045 94.4621L35.074 94.3327C35.1348 94.2194 35.2241 94.0533 35.3378 93.8422C35.5652 93.42 35.89 92.8179 36.2797 92.0983C36.492 91.7065 36.7237 91.2729 36.9695 90.8131C37.1744 90.4297 37.3891 90.028 37.6103 89.6172L37.6113 89.6155C37.6979 89.4531 37.789 89.2845 37.8822 89.1123C38.0384 88.8236 38.2002 88.5243 38.3558 88.226C38.4603 88.0542 38.5636 87.8832 38.6669 87.712C38.8413 87.4232 39.0156 87.1344 39.1956 86.8427L39.196 86.8421C39.619 86.1542 40.0301 85.469 40.4254 84.8099C41.1168 83.6573 41.7601 82.5848 42.3354 81.7186C42.7947 81.0397 43.1791 80.4731 43.4487 80.0761L43.7622 79.6149L43.8449 79.4933L43.8661 79.4622L43.8715 79.4543L43.8728 79.4524L43.8732 79.4519L43.8733 79.4518L43.8733 79.4517L43.4601 79.1702L43.8733 79.4517L44.1558 79.0371L43.7402 78.756L28.2302 68.266L27.8169 67.9865L27.5365 68.3991L27.9501 68.6802L27.5365 68.3991L27.5365 68.3992L27.5364 68.3993L27.536 68.3999L27.5345 68.4022L27.5283 68.4112L27.5043 68.4467L27.4106 68.5848C27.3286 68.7057 27.2085 68.8831 27.0558 69.1089C26.7506 69.5606 26.3152 70.2061 25.7949 70.9816L25.7936 70.9834C25.1028 72.0231 24.3104 73.3404 23.4771 74.7258C23.0604 75.4185 22.6335 76.1282 22.2039 76.8288L22.2038 76.8288L22.2021 76.8317L21.7221 77.6267L21.242 78.4217L21.2355 78.4325L21.2296 78.4436C20.9407 78.9815 20.6516 79.5099 20.3718 80.0195L20.3718 80.0195L20.369 80.0247C20.1166 80.4973 19.8678 80.9583 19.6298 81.3991C19.3546 81.9088 19.0939 82.3917 18.8589 82.8348C18.8587 82.8352 18.8585 82.8356 18.8583 82.836L17.7945 84.8188L17.4954 85.3763L17.4165 85.5234L17.3963 85.5611L17.3912 85.5706L17.3899 85.573L17.3896 85.5736L17.3895 85.5738L17.3895 85.5738L17.8301 85.8102L17.3895 85.5738L17.1475 86.025L17.6042 86.2563L34.3142 94.7163Z" fill="#5D7294" stroke="#5D7294"/>
<path d="M45.4677 76.2356L45.8635 76.521L46.1584 76.1322L45.7601 75.83L46.1584 76.1322L46.1584 76.1322L46.1585 76.1321L46.1589 76.1316L46.1604 76.1296L46.1661 76.122L46.1889 76.0921L46.2773 75.9752C46.3548 75.8729 46.4684 75.7227 46.6129 75.5313C46.9018 75.1486 47.3143 74.601 47.8094 73.941C47.9717 73.7262 48.1415 73.4999 48.3181 73.2645C49.2258 72.0544 50.3144 70.6034 51.5078 69.2277L51.511 69.2239C51.9666 68.6881 52.4099 68.1526 52.8389 67.6344C53.7685 66.5115 54.631 65.4696 55.4067 64.6805L55.4127 64.6744L55.4185 64.668C55.9727 64.0639 56.437 63.5622 56.7627 63.2116C56.9255 63.0363 57.0537 62.8987 57.1411 62.8051L57.2408 62.6984L57.2663 62.6711L57.2728 62.6642L57.2744 62.6625L57.2747 62.6621L57.2748 62.662L57.2749 62.662L56.9101 62.32L57.2749 62.662L57.617 62.297L57.2518 61.955L43.5818 49.155L43.2122 48.809L42.8708 49.1829L43.2401 49.52L42.8708 49.1829L42.8708 49.1829L42.8707 49.183L42.8703 49.1835L42.8684 49.1855L42.8612 49.1934L42.8325 49.2248L42.7203 49.3475C42.6218 49.4549 42.4774 49.6125 42.2932 49.8129C41.9256 50.2129 41.4 50.7834 40.7673 51.466C39.8002 52.4633 38.6946 53.7955 37.5442 55.1817C37.1305 55.6802 36.7109 56.1857 36.29 56.6851C34.8235 58.3768 33.4781 60.1719 32.413 61.593C32.2846 61.7642 32.1603 61.9301 32.0404 62.0896C31.4803 62.8347 31.0128 63.4573 30.6852 63.8936L30.3048 64.4004L30.2045 64.5341L30.1788 64.5684L30.1723 64.5771L30.1706 64.5793L30.1702 64.5798L30.1701 64.58L30.1701 64.58L30.5701 64.88L30.1701 64.58L29.8643 64.9876L30.2777 65.2856L45.4677 76.2356Z" fill="#5D7294" stroke="#5D7294"/>
<path d="M61.36 32.9902L61.0466 32.6006L61.0466 32.6006L61.0465 32.6007L61.0459 32.6011L61.0438 32.6028L61.0354 32.6096L61.0022 32.6363L60.8724 32.7406L60.3794 33.1366C59.9545 33.4778 59.3471 33.9652 58.6173 34.5501L58.6157 34.5514C58.3245 34.7867 58.0126 35.0377 57.6854 35.3009C57.1965 35.6943 56.6736 36.115 56.135 36.5519L56.1349 36.5518L56.1253 36.56C55.5449 37.0556 54.948 37.5884 54.3487 38.1234C54.0255 38.4119 53.7016 38.701 53.3793 38.9852L53.3793 38.9852L53.377 38.9872C52.9798 39.3417 52.5806 39.6962 52.1856 40.0469C51.6602 40.5133 51.1423 40.9731 50.6462 41.4179C50.1087 41.8998 49.5967 42.4048 49.1319 42.8633C48.8478 43.1436 48.5812 43.4065 48.3373 43.6361L48.3372 43.636L48.3291 43.644C47.6644 44.2987 47.1097 44.8435 46.7211 45.2245C46.5269 45.415 46.3741 45.5646 46.27 45.6665L46.1512 45.7829L46.1207 45.8127L46.113 45.8202L46.1111 45.8221L46.1106 45.8225L46.1105 45.8226L46.1105 45.8227L46.46 46.1802L46.1104 45.8227L45.7477 46.1773L46.1075 46.5348L59.3875 59.7348L59.666 59.4546L60.0812 59.7561L59.7299 59.4002L60.0812 59.7561L60.0812 59.756L60.0814 59.7559L60.0818 59.7555L60.0835 59.7538L60.0902 59.7472L60.1169 59.7208L60.2212 59.6179L60.6171 59.2276C60.958 58.8918 61.4448 58.4125 62.0289 57.8384C62.2263 57.6476 62.4254 57.4488 62.63 57.2445C63.0607 56.8144 63.5159 56.3598 64.0309 55.905C64.8014 55.2246 65.6217 54.4944 66.441 53.7649C66.7763 53.4705 67.1052 53.1771 67.4294 52.8878C67.9077 52.461 68.3758 52.0433 68.8391 51.6452C69.6358 51.0078 70.3847 50.4087 71.0245 49.8889C71.6644 49.374 72.1968 48.9441 72.5694 48.6428C72.7558 48.492 72.9021 48.3735 73.0019 48.2926L73.1159 48.2002L73.1452 48.1765L73.1526 48.1705L73.1545 48.1689L73.1549 48.1686L73.155 48.1685L73.1551 48.1684L72.84 47.7802L73.1551 48.1684L73.5349 47.8601L73.2349 47.4736L61.7549 32.6837L61.443 32.2818L61.0466 32.6006L61.36 32.9902Z" fill="#5D7294" stroke="#5D7294"/>
<path d="M76.0307 46.1374L76.4264 45.7408L76.4357 45.7341L76.5545 45.6474L77.0046 45.3191C77.3918 45.0368 77.9438 44.6347 78.6032 44.1551C79.4528 43.5419 80.5178 42.851 81.6597 42.1102C82.2929 41.6994 82.9499 41.2732 83.6069 40.8364L83.6069 40.8365L83.6137 40.8318C84.4544 40.2527 85.3415 39.7346 86.1975 39.2347C86.2391 39.2103 86.2807 39.186 86.3223 39.1618C86.7066 38.9372 87.0749 38.72 87.4261 38.5129C87.8952 38.2363 88.3339 37.9776 88.7401 37.743L88.7401 37.7431L88.7446 37.7404C88.9083 37.6436 89.0655 37.5505 89.2154 37.4618C89.7116 37.1681 90.129 36.9211 90.4425 36.7375C90.6473 36.6302 90.811 36.5447 90.9238 36.4858L91.0554 36.4173L91.0893 36.3996L91.0979 36.3951L91.1 36.394L91.1006 36.3937L91.1007 36.3937L91.1007 36.3937L90.8701 35.95L91.1007 36.3937L91.5547 36.1576L91.3082 35.7092L82.2882 19.2992L82.0499 18.8657L81.6139 19.0993L81.6139 19.0993L81.6138 19.0994L81.6132 19.0997L81.6109 19.1009L81.6015 19.1059L81.5638 19.126L81.4163 19.2043C81.2871 19.2726 81.0981 19.3721 80.8591 19.4966L80.8499 19.5013L80.841 19.5065C80.6053 19.6419 80.3137 19.8133 79.98 20.0094C79.6525 20.2019 79.2844 20.4182 78.8891 20.6476L78.8868 20.6489C78.5726 20.8335 78.2389 21.0307 77.8887 21.2377C77.3416 21.5611 76.7541 21.9083 76.1378 22.2683C75.1292 22.8575 74.0462 23.495 73.0009 24.2052C72.2755 24.6888 71.5376 25.169 70.8195 25.6363C69.5107 26.4881 68.2679 27.2969 67.2874 28.0046L67.2856 28.0059C66.531 28.5557 65.9013 29.013 65.4603 29.3328C65.2398 29.4927 65.0664 29.6182 64.9483 29.7038L64.8134 29.8014L64.7788 29.8264L64.7701 29.8327L64.7679 29.8343L64.7673 29.8347L64.7672 29.8348L64.7672 29.8348L65.0601 30.24L64.7672 29.8348L64.3603 30.1289L64.656 30.5346L75.686 45.6646L76.0307 46.1374Z" fill="#5D7294" stroke="#5D7294"/>
<path d="M93.8062 33.8409L93.6432 33.9292L94.116 34.4031L94.126 34.4131L94.5139 34.1311L94.7081 34.4896L94.7082 34.4896L94.7085 34.4894L94.7103 34.4884L94.7181 34.4842L94.75 34.4671C94.7784 34.452 94.821 34.4293 94.877 34.3997C94.989 34.3406 95.1547 34.2541 95.3677 34.1451L95.3678 34.1453L95.3801 34.1385C95.7923 33.9128 96.3887 33.6 97.1213 33.2776L97.1214 33.2777L97.1301 33.2737C97.5849 33.0631 98.0829 32.8294 98.6118 32.5813C99.824 32.0125 101.198 31.3676 102.586 30.7499C104.609 29.9228 106.631 29.096 108.148 28.4773C108.919 28.2039 109.56 27.9752 110.009 27.8146L110.533 27.6271L110.672 27.5776L110.707 27.5649L110.716 27.5616L110.718 27.5608L110.719 27.5606L110.719 27.5606L110.719 27.5605L110.55 27.09L110.719 27.5605L111.19 27.3913L111.02 26.9204L104.67 9.31037L104.501 8.84069L104.031 9.00938L104.2 9.47998L104.031 9.00939L104.031 9.0094L104.031 9.00946L104.03 9.00969L104.028 9.0106L104.017 9.01425L103.977 9.02865L103.821 9.08482L103.226 9.29807C102.714 9.48179 101.981 9.74426 101.101 10.0592L101.091 10.0631L101.08 10.0674C99.3505 10.7772 97.0509 11.7171 94.7508 12.6571L94.7437 12.66L94.7367 12.6632C93.1913 13.3508 91.6505 14.0729 90.2945 14.7084C89.6569 15.0072 89.0602 15.2868 88.5231 15.5347C87.7617 15.8753 87.1252 16.2084 86.6599 16.452C86.5964 16.4852 86.536 16.5168 86.479 16.5465C86.238 16.672 86.0471 16.7725 85.9162 16.8417L85.7662 16.9213L85.7274 16.942L85.7174 16.9473L85.7148 16.9487L85.7141 16.9491L85.7139 16.9492L85.7139 16.9492L85.7139 16.9492L85.95 17.39L85.7139 16.9492L85.2813 17.1809L85.5048 17.6177L93.8062 33.8409Z" fill="#5D7294" stroke="#5D7294"/>
<path d="M108.075 8.06567L113.88 25.7798V26.385L114.526 26.1882L114.38 25.71L114.526 26.1882L114.526 26.1882L114.526 26.1882L114.527 26.188L114.529 26.1873L114.538 26.1846L114.574 26.1736L114.714 26.131C114.837 26.0938 115.017 26.0391 115.246 25.9698C115.704 25.8313 116.358 25.6341 117.142 25.3995C117.575 25.2733 118.041 25.1309 118.531 24.981C119.856 24.5756 121.362 24.1149 122.909 23.7678L122.909 23.7679L122.916 23.7662C123.631 23.595 124.335 23.4153 125.014 23.2418C126.394 22.889 127.674 22.5617 128.752 22.3832L128.76 22.3819L128.768 22.3804C129.573 22.2203 130.246 22.0852 130.718 21.9901C130.953 21.9426 131.139 21.905 131.265 21.8794L131.41 21.85L131.447 21.8425L131.457 21.8406L131.459 21.8401L131.46 21.8399L131.46 21.8399L131.46 21.8399L131.945 21.7412L131.851 21.2554L128.311 2.86545L128.216 2.37246L127.724 2.46936L127.82 2.95996L127.724 2.46937L127.723 2.46938L127.723 2.46941L127.723 2.46955L127.72 2.47008L127.709 2.47217L127.667 2.48045L127.504 2.51275C127.361 2.54106 127.151 2.58267 126.884 2.63583C126.351 2.74191 125.59 2.89403 124.678 3.07853C123.353 3.30926 121.739 3.71947 120.056 4.14682C119.375 4.31981 118.683 4.49561 117.995 4.66345C116.192 5.07902 114.419 5.61686 112.905 6.07633C112.364 6.24056 111.855 6.39478 111.391 6.52981L111.391 6.52979L111.386 6.53127C110.491 6.8013 109.745 7.02632 109.224 7.18384L108.619 7.36668L108.46 7.41485L108.419 7.42721L108.409 7.43033L108.406 7.43112L108.405 7.43132L108.405 7.43137L108.405 7.43138L108.55 7.90997L108.405 7.43139L107.916 7.57952L108.075 8.06567Z" fill="#5D7294" stroke="#5D7294"/>
<path d="M177.896 20.4231L178.334 20.4913L178.297 20.9946L178.297 20.9946L178.297 20.9946L178.298 20.9947L178.3 20.9951L178.31 20.9965L178.347 21.002L178.492 21.0234C178.62 21.0422 178.808 21.0697 179.048 21.1048L179.048 21.1049L179.058 21.1061C179.527 21.1647 180.183 21.2626 180.977 21.4293L180.977 21.4294L180.983 21.4304C182.591 21.75 184.737 22.1693 186.883 22.5885C187.979 22.8561 189.087 23.1299 190.12 23.3852C191.073 23.6208 191.962 23.8407 192.722 24.0258L192.725 24.0265C193.253 24.152 193.692 24.2888 194.076 24.4083C194.266 24.4675 194.442 24.5225 194.609 24.5698C194.837 24.639 195.015 24.6934 195.136 24.7306L195.276 24.7733L195.311 24.7842L195.32 24.787L195.322 24.7877L195.323 24.7878L195.323 24.7879L195.323 24.7879L195.47 24.31L195.323 24.7879L195.808 24.9372L195.95 24.4497L201.18 6.46965L201.319 5.99357L200.844 5.85109L200.844 5.85108L200.844 5.85104L200.843 5.85086L200.84 5.8501L200.83 5.84702L200.79 5.83476L200.63 5.78656C200.491 5.74423 200.287 5.68192 200.027 5.60211L200.018 5.59915L200.008 5.59658C199.824 5.54797 199.617 5.48347 199.372 5.40741C199.282 5.37921 199.186 5.34942 199.084 5.31825C198.718 5.20596 198.297 5.08242 197.827 4.97376C196.925 4.74962 195.868 4.48981 194.736 4.2114C193.6 3.93212 192.388 3.63413 191.18 3.33469L191.171 3.33247L191.162 3.33058C189.494 2.98188 187.817 2.66038 186.342 2.37749C185.657 2.2463 185.016 2.12341 184.439 2.00996C183.52 1.81798 182.74 1.69625 182.189 1.62474C181.919 1.58481 181.707 1.55479 181.561 1.53469C181.488 1.52458 181.431 1.51698 181.393 1.51189L181.35 1.50612L181.338 1.50465L181.335 1.50426L181.334 1.50416L181.334 1.50413L181.334 1.50412L181.334 1.50411L181.27 2L181.334 1.50411L180.851 1.44177L180.776 1.92309L177.896 20.4231Z" fill="#5D7294" stroke="#5D7294"/>
<path d="M198.884 25.3161L199.289 25.447L199.225 25.9535L199.225 25.9539L199.225 25.9539L199.226 25.9543L199.234 25.9563L199.267 25.9652C199.296 25.9735 199.342 25.9862 199.401 26.0035C199.518 26.0379 199.691 26.0906 199.907 26.1627C199.963 26.1824 200.021 26.2031 200.082 26.2248C200.518 26.3798 201.098 26.5857 201.769 26.8298L201.771 26.8305C202.552 27.1109 203.453 27.4313 204.425 27.7718C204.534 27.8102 204.644 27.8486 204.755 27.8871C205.631 28.1927 206.528 28.506 207.395 28.8959L207.401 28.8988L207.408 28.9016C208.306 29.2749 209.207 29.6507 210.064 30.0083C211.128 30.4523 212.126 30.8682 212.967 31.2168C213.707 31.5694 214.323 31.8625 214.754 32.0677L215.258 32.307L215.39 32.37L215.424 32.3861L215.433 32.3902L215.435 32.3912L215.435 32.3915L215.436 32.3916L215.436 32.3916L215.65 31.9399L215.436 32.3916L215.889 32.6068L216.103 32.1527L224.073 15.2027L224.285 14.7513L223.834 14.538L223.62 14.9899L223.834 14.5379L223.834 14.5379L223.834 14.5379L223.833 14.5376L223.831 14.5364L223.821 14.5318L223.783 14.5136L223.633 14.4426L223.063 14.173L221.024 13.208L221.016 13.2044L221.009 13.201C219.689 12.63 218.014 11.9403 216.265 11.2207C215.743 11.0056 215.214 10.7879 214.686 10.5698C213.686 10.1314 212.655 9.76843 211.692 9.42919C211.539 9.37514 211.387 9.3217 211.237 9.26865C210.764 9.10105 210.303 8.93662 209.861 8.77893C209.277 8.57089 208.727 8.3746 208.226 8.19831C207.347 7.88846 206.619 7.62924 206.102 7.44027L206.095 7.43782L206.088 7.43556C205.83 7.34964 205.625 7.2838 205.484 7.2393C205.414 7.21705 205.359 7.20012 205.322 7.18869L205.279 7.17567L205.268 7.17228L205.265 7.17137L205.264 7.17111L205.264 7.17104L205.264 7.17101L205.264 7.171L205.12 7.6499L205.264 7.17099L204.795 7.03032L204.644 7.49612L198.884 25.3161Z" fill="#5D7294" stroke="#5D7294"/>
</svg>
